<svg width="22" height="21" viewBox="0 0 22 21" fill="none" xmlns="http://www.w3.org/2000/svg">
<path fill-rule="evenodd" clip-rule="evenodd" d="M10.3113 20.725C10.7117 21.1053 11.3446 21.0891 11.725 20.6887C12.1054 20.2883 12.0892 19.6553 11.6887 19.275L2.45191 10.5L11.6887 1.72496C12.0892 1.34458 12.1054 0.71162 11.725 0.311214C11.3446 -0.0891914 10.7117 -0.105421 10.3113 0.274963L0.311251 9.77496C0.11252 9.96376 0 10.2259 0 10.5C0 10.7741 0.11252 11.0362 0.311251 11.225L10.3113 20.725ZM20.3113 20.725C20.7117 21.1053 21.3446 21.0891 21.725 20.6887C22.1054 20.2883 22.0892 19.6553 21.6887 19.275L12.4519 10.5L21.6887 1.72496C22.0892 1.34458 22.1054 0.71162 21.725 0.311214C21.3446 -0.0891914 20.7117 -0.105421 20.3113 0.274963L10.3113 9.77496C10.1125 9.96376 10 10.2259 10 10.5C10 10.7741 10.1125 11.0362 10.3113 11.225L20.3113 20.725Z" fill="#212121"/>
</svg>
