<svg width="22" height="21" viewBox="0 0 22 21" fill="none" xmlns="http://www.w3.org/2000/svg">
<path fill-rule="evenodd" clip-rule="evenodd" d="M1.68874 0.274965C1.28834 -0.105421 0.655381 -0.089191 0.274996 0.311215C-0.10539 0.711621 -0.0891605 1.34458 0.311246 1.72496L9.54809 10.5L0.311246 19.275C-0.0891605 19.6553 -0.10539 20.2883 0.274996 20.6887C0.655381 21.0891 1.28834 21.1053 1.68874 20.725L11.6887 11.225C11.8875 11.0362 12 10.7741 12 10.5C12 10.2259 11.8875 9.96376 11.6887 9.77497L1.68874 0.274965ZM11.6887 0.274965C11.2883 -0.105421 10.6554 -0.089191 10.275 0.311215C9.89461 0.711621 9.91084 1.34458 10.3112 1.72496L19.5481 10.5L10.3112 19.275C9.91084 19.6553 9.89461 20.2883 10.275 20.6887C10.6554 21.0891 11.2883 21.1053 11.6887 20.725L21.6887 11.225C21.8875 11.0362 22 10.7741 22 10.5C22 10.2259 21.8875 9.96376 21.6887 9.77497L11.6887 0.274965Z" fill="#212121"/>
</svg>
