<svg width="104" height="24" viewBox="0 0 104 24" fill="none" xmlns="http://www.w3.org/2000/svg">
<path fill-rule="evenodd" clip-rule="evenodd" d="M15.043 7.73224V9.34213C15.8294 9.53139 16.5395 9.93662 17.0843 10.5071C17.6292 11.0776 17.9846 11.7879 18.106 12.5492C18.1178 12.6201 18.1133 12.6925 18.0928 12.7616C18.0758 12.8186 18.0483 12.8722 18.0116 12.9199H18.3448C18.7588 12.9199 19.0972 13.2968 19.0972 13.6696C19.0972 14.0423 18.7588 14.419 18.3448 14.419H18.1813V15.9183H5.66065V14.419H5.47892C5.06517 14.419 4.72656 14.0423 4.72656 13.6696C4.72656 13.2968 5.06517 12.9199 5.47892 12.9199H10.0166C9.9799 12.8722 9.95236 12.8186 9.93541 12.7616C9.91488 12.6925 9.91035 12.6201 9.92213 12.5492C10.0428 11.7887 10.3969 11.0789 10.9402 10.5083C11.4835 9.93778 12.1919 9.53182 12.9769 9.34115V7.73224C12.9769 7.60223 13.0313 7.47754 13.1282 7.3856C13.225 7.29367 13.3564 7.24202 13.4934 7.24202H14.5265C14.6635 7.24202 14.7949 7.29367 14.8917 7.3856C14.9886 7.47754 15.043 7.60223 15.043 7.73224ZM17.2527 0.65245L19.8354 5.55467C19.874 5.62915 19.8922 5.71173 19.888 5.79467C19.8838 5.87761 19.8575 5.95818 19.8116 6.02884C19.7657 6.09949 19.7015 6.15792 19.6253 6.19862C19.549 6.23933 19.4632 6.26099 19.3757 6.26158H18.1422V7.73224C18.1422 7.86226 18.0878 7.98695 17.9909 8.07888C17.894 8.17082 17.7627 8.22247 17.6257 8.22247C17.4887 8.22247 17.3573 8.17082 17.2604 8.07888C17.1636 7.98695 17.1091 7.86226 17.1091 7.73224V6.26158H8.64424C8.55642 6.26107 8.47018 6.23933 8.39368 6.1984C8.31718 6.15746 8.25294 6.09869 8.20702 6.02764C8.16111 5.95659 8.13505 5.8756 8.13129 5.79233C8.12754 5.70906 8.14621 5.62625 8.18556 5.55173L10.7682 0.649509C10.8111 0.568333 10.8768 0.500049 10.9582 0.452269C11.0395 0.404489 11.1333 0.379091 11.229 0.378906H16.7909C16.8871 0.379182 16.9813 0.404933 17.0629 0.453262C17.1445 0.50159 17.2102 0.570576 17.2527 0.65245ZM11.5358 14.7875C11.5358 15.0013 11.7041 15.1749 11.9119 15.1749C12.1199 15.1749 12.2879 15.0013 12.2879 14.7875C12.2879 14.5737 12.1199 14.4001 11.9119 14.4001C11.7041 14.4001 11.5358 14.5737 11.5358 14.7875ZM18.1813 18.9167H5.66065V16.5183H18.1813V18.9167ZM12.2879 17.6923C12.2879 17.4785 12.1199 17.3052 11.9119 17.3052C11.7041 17.3052 11.5355 17.4785 11.5358 17.6923C11.5358 17.9064 11.7041 18.0798 11.9119 18.0798C12.1199 18.0798 12.2879 17.9064 12.2879 17.6923ZM5.66065 22.7283V20.9849V19.517H18.181V22.7283C18.181 22.9412 18.1358 23.1157 17.9295 23.1157H16.4251C16.2185 23.1157 16.1431 22.9412 16.1431 22.7283V21.6158H7.69888V22.7283C7.69888 22.9412 7.60517 23.1157 7.3983 23.1157H5.89417C5.6873 23.1157 5.66065 22.9412 5.66065 22.7283ZM12.2879 20.5975C12.2879 20.3839 12.1199 20.2103 11.9119 20.2103C11.7041 20.2103 11.5355 20.3842 11.5358 20.5975C11.5358 20.8119 11.7041 20.9846 11.9119 20.9846C12.1199 20.9846 12.2879 20.8119 12.2879 20.5975Z" fill="#009688"/>
<path d="M34.026 5.122V8.002H33.684C33.684 7.918 33.666 7.834 33.63 7.75C33.594 7.666 33.546 7.624 33.486 7.624H27.654V10.81H32.37C32.43 10.81 32.478 10.768 32.514 10.684C32.55 10.6 32.568 10.516 32.568 10.432H32.91V13.312H32.568C32.568 13.228 32.55 13.144 32.514 13.06C32.478 12.976 32.43 12.934 32.37 12.934H27.654V18.46C27.654 18.52 27.696 18.568 27.78 18.604C27.876 18.64 27.972 18.658 28.068 18.658V19H24.9V18.658C24.996 18.658 25.086 18.64 25.17 18.604C25.266 18.568 25.314 18.52 25.314 18.46V6.04C25.314 5.98 25.266 5.932 25.17 5.896C25.086 5.86 25.002 5.842 24.918 5.842V5.5H33.486C33.546 5.5 33.594 5.458 33.63 5.374C33.666 5.29 33.684 5.206 33.684 5.122H34.026ZM43.3167 18.46C43.3167 18.52 43.3587 18.568 43.4427 18.604C43.5387 18.64 43.6287 18.658 43.7127 18.658V19H41.4807V18.334C40.8447 18.886 40.1067 19.162 39.2667 19.162C38.0067 19.162 37.0827 18.802 36.4947 18.082C35.9067 17.35 35.6127 16.438 35.6127 15.346V11.26C35.6127 11.2 35.5647 11.152 35.4687 11.116C35.3847 11.08 35.3007 11.062 35.2167 11.062V10.72H38.2767V11.062C38.1927 11.062 38.1027 11.08 38.0067 11.116C37.9227 11.152 37.8807 11.2 37.8807 11.26V15.202C37.8807 15.718 38.0127 16.156 38.2767 16.516C38.5407 16.864 38.9487 17.038 39.5007 17.038C40.0287 17.038 40.4247 16.876 40.6887 16.552C40.9527 16.228 41.0847 15.814 41.0847 15.31V11.26C41.0847 11.2 41.0367 11.152 40.9407 11.116C40.8567 11.08 40.7727 11.062 40.6887 11.062V10.72H43.7127V11.062C43.6287 11.062 43.5387 11.08 43.4427 11.116C43.3587 11.152 43.3167 11.2 43.3167 11.26V18.46ZM50.9208 10.18V13.078H50.5788C50.5788 12.994 50.5608 12.898 50.5248 12.79C50.4888 12.682 50.4408 12.622 50.3808 12.61H50.2548C49.8828 12.61 49.5048 12.718 49.1208 12.934C48.7488 13.138 48.4368 13.414 48.1848 13.762C47.9448 14.098 47.8248 14.458 47.8248 14.842V18.46C47.8248 18.52 47.8668 18.568 47.9508 18.604C48.0468 18.64 48.1368 18.658 48.2208 18.658V19H45.1968V18.658C45.2808 18.658 45.3648 18.64 45.4488 18.604C45.5448 18.568 45.5928 18.52 45.5928 18.46V11.26C45.5928 11.2 45.5448 11.152 45.4488 11.116C45.3648 11.08 45.2808 11.062 45.1968 11.062V10.72H47.8248V11.494C48.1488 11.194 48.5388 10.954 48.9948 10.774C49.4508 10.594 49.9068 10.504 50.3628 10.504H50.3808H50.3988C50.4588 10.504 50.5008 10.468 50.5248 10.396C50.5608 10.324 50.5788 10.252 50.5788 10.18H50.9208ZM60.9494 18.46C60.9494 18.52 60.9914 18.568 61.0754 18.604C61.1714 18.64 61.2674 18.658 61.3634 18.658V19H58.1954V18.658C58.2914 18.658 58.3814 18.64 58.4654 18.604C58.5614 18.568 58.6094 18.52 58.6094 18.46V14.716C58.6094 14.104 58.4594 13.582 58.1594 13.15C57.8594 12.706 57.4094 12.484 56.8094 12.484C56.1974 12.484 55.6994 12.688 55.3154 13.096C54.9434 13.504 54.7574 14.092 54.7574 14.86V18.46C54.7574 18.52 54.7994 18.568 54.8834 18.604C54.9794 18.64 55.0754 18.658 55.1714 18.658V19H52.0214V18.658C52.1174 18.658 52.2074 18.64 52.2914 18.604C52.3874 18.568 52.4354 18.52 52.4354 18.46V11.26C52.4354 11.2 52.3874 11.152 52.2914 11.116C52.2074 11.08 52.1234 11.062 52.0394 11.062V10.72H54.7574V11.458C55.0694 11.17 55.4354 10.948 55.8554 10.792C56.2874 10.624 56.7254 10.54 57.1694 10.54C57.9374 10.54 58.6034 10.702 59.1674 11.026C59.7434 11.35 60.1814 11.788 60.4814 12.34C60.7934 12.88 60.9494 13.486 60.9494 14.158V18.46ZM64.8433 9.208C64.4593 9.208 64.1293 9.076 63.8533 8.812C63.5893 8.548 63.4573 8.218 63.4573 7.822C63.4573 7.45 63.5893 7.132 63.8533 6.868C64.1293 6.592 64.4593 6.454 64.8433 6.454C65.2273 6.454 65.5513 6.592 65.8153 6.868C66.0793 7.132 66.2113 7.45 66.2113 7.822C66.2113 8.218 66.0793 8.548 65.8153 8.812C65.5513 9.076 65.2273 9.208 64.8433 9.208ZM63.6733 11.26C63.6733 11.2 63.6253 11.152 63.5293 11.116C63.4453 11.08 63.3613 11.062 63.2773 11.062V10.72H66.3733V11.062C66.2893 11.062 66.1993 11.08 66.1033 11.116C66.0193 11.152 65.9773 11.2 65.9773 11.26V18.46C65.9773 18.52 66.0193 18.568 66.1033 18.604C66.1993 18.64 66.2893 18.658 66.3733 18.658V19H63.2773V18.658C63.3613 18.658 63.4453 18.64 63.5293 18.604C63.6253 18.568 63.6733 18.52 63.6733 18.46V11.26ZM73.1051 10.36V13.096H72.7631C72.7631 13.012 72.7451 12.934 72.7091 12.862C72.6731 12.778 72.6251 12.736 72.5651 12.736H71.3951V18.46C71.3951 18.52 71.4371 18.568 71.5211 18.604C71.6051 18.64 71.6891 18.658 71.7731 18.658V19H68.8391V18.658C68.9231 18.658 69.0071 18.64 69.0911 18.604C69.1751 18.568 69.2171 18.52 69.2171 18.46V12.736H68.3531C68.2931 12.736 68.2451 12.778 68.2091 12.862C68.1731 12.934 68.1551 13.012 68.1551 13.096H67.8131V10.36H68.1551C68.1551 10.444 68.1731 10.528 68.2091 10.612C68.2451 10.684 68.2931 10.72 68.3531 10.72H69.2171V8.614C69.2171 8.554 69.1751 8.506 69.0911 8.47C69.0071 8.434 68.9231 8.416 68.8391 8.416V8.074H71.7731V8.416C71.6891 8.416 71.6051 8.434 71.5211 8.47C71.4371 8.506 71.3951 8.554 71.3951 8.614V10.72H72.5651C72.6251 10.72 72.6731 10.684 72.7091 10.612C72.7451 10.528 72.7631 10.444 72.7631 10.36H73.1051ZM82.3928 18.46C82.3928 18.52 82.4348 18.568 82.5188 18.604C82.6148 18.64 82.7048 18.658 82.7888 18.658V19H80.5568V18.334C79.9208 18.886 79.1828 19.162 78.3428 19.162C77.0828 19.162 76.1588 18.802 75.5708 18.082C74.9828 17.35 74.6888 16.438 74.6888 15.346V11.26C74.6888 11.2 74.6408 11.152 74.5448 11.116C74.4608 11.08 74.3768 11.062 74.2928 11.062V10.72H77.3528V11.062C77.2688 11.062 77.1788 11.08 77.0828 11.116C76.9988 11.152 76.9568 11.2 76.9568 11.26V15.202C76.9568 15.718 77.0888 16.156 77.3528 16.516C77.6168 16.864 78.0248 17.038 78.5768 17.038C79.1048 17.038 79.5008 16.876 79.7648 16.552C80.0288 16.228 80.1608 15.814 80.1608 15.31V11.26C80.1608 11.2 80.1128 11.152 80.0168 11.116C79.9328 11.08 79.8488 11.062 79.7648 11.062V10.72H82.7888V11.062C82.7048 11.062 82.6148 11.08 82.5188 11.116C82.4348 11.152 82.3928 11.2 82.3928 11.26V18.46ZM89.997 10.18V13.078H89.655C89.655 12.994 89.637 12.898 89.601 12.79C89.565 12.682 89.517 12.622 89.457 12.61H89.331C88.959 12.61 88.581 12.718 88.197 12.934C87.825 13.138 87.513 13.414 87.261 13.762C87.021 14.098 86.901 14.458 86.901 14.842V18.46C86.901 18.52 86.943 18.568 87.027 18.604C87.123 18.64 87.213 18.658 87.297 18.658V19H84.273V18.658C84.357 18.658 84.441 18.64 84.525 18.604C84.621 18.568 84.669 18.52 84.669 18.46V11.26C84.669 11.2 84.621 11.152 84.525 11.116C84.441 11.08 84.357 11.062 84.273 11.062V10.72H86.901V11.494C87.225 11.194 87.615 10.954 88.071 10.774C88.527 10.594 88.983 10.504 89.439 10.504H89.457H89.475C89.535 10.504 89.577 10.468 89.601 10.396C89.637 10.324 89.655 10.252 89.655 10.18H89.997ZM95.2915 10.342C96.2155 10.342 97.0135 10.546 97.6855 10.954C98.3575 11.35 98.8675 11.89 99.2155 12.574C99.5635 13.258 99.7375 14.014 99.7375 14.842C99.7375 15.094 99.7195 15.346 99.6835 15.598H93.0955C93.1435 16.174 93.3955 16.624 93.8515 16.948C94.3075 17.272 94.8535 17.434 95.4895 17.434C95.9215 17.434 96.2815 17.374 96.5695 17.254C96.8695 17.134 97.1335 16.954 97.3615 16.714C97.3855 16.666 97.3975 16.636 97.3975 16.624C97.3975 16.576 97.3795 16.528 97.3435 16.48C97.3075 16.42 97.2715 16.378 97.2355 16.354L97.4515 16.084L99.4495 17.65L99.2515 17.92C99.0715 17.812 98.9455 17.8 98.8735 17.884C98.0335 18.892 96.9055 19.396 95.4895 19.396C94.5775 19.396 93.7735 19.198 93.0775 18.802C92.3815 18.394 91.8415 17.854 91.4575 17.182C91.0855 16.498 90.8995 15.742 90.8995 14.914C90.8995 14.038 91.0855 13.252 91.4575 12.556C91.8295 11.86 92.3455 11.32 93.0055 10.936C93.6775 10.54 94.4395 10.342 95.2915 10.342ZM97.5775 13.924C97.5295 13.432 97.2775 13.018 96.8215 12.682C96.3775 12.334 95.8735 12.16 95.3095 12.16C94.7455 12.16 94.2595 12.334 93.8515 12.682C93.4435 13.018 93.1975 13.432 93.1135 13.924H97.5775Z" fill="white"/>
</svg>
