<svg width="104" height="24" fill="none" xmlns="http://www.w3.org/2000/svg"><path fill-rule="evenodd" clip-rule="evenodd" d="M15.043 7.732v1.61c.786.19 1.497.595 2.041 1.165.545.57.9 1.28 1.022 2.042a.473.473 0 01-.094.37h.333c.414 0 .752.378.752.75 0 .373-.338.75-.752.75h-.164v1.5H5.661v-1.5h-.182c-.414 0-.752-.377-.752-.75 0-.372.338-.75.752-.75h4.538a.488.488 0 01-.095-.37c.12-.76.475-1.47 1.018-2.04a4.168 4.168 0 012.037-1.168V7.732c0-.13.054-.254.151-.346a.53.53 0 01.365-.144h1.034a.53.53 0 01.365.144.478.478 0 01.151.346zm2.21-7.08l2.582 4.903a.47.47 0 01-.023.474.506.506 0 01-.187.17.538.538 0 01-.25.063h-1.233v1.47c0 .13-.054.255-.151.347a.53.53 0 01-.365.143.531.531 0 01-.366-.143.478.478 0 01-.15-.347v-1.47H8.643a.538.538 0 01-.25-.064.506.506 0 01-.187-.17.473.473 0 01-.021-.476L10.768.65a.5.5 0 01.19-.198.537.537 0 01.271-.073h5.562a.54.54 0 01.272.074.5.5 0 01.19.2zm-5.717 14.136c0 .213.168.387.376.387a.382.382 0 00.376-.388.382.382 0 00-.376-.387.382.382 0 00-.376.387zm6.645 4.129H5.661v-2.399h12.52v2.399zm-5.893-1.225a.381.381 0 00-.376-.387.381.381 0 00-.376.387c0 .214.168.388.376.388a.382.382 0 00.376-.388zM5.66 22.728v-3.211h12.52v3.211c0 .213-.045.388-.252.388h-1.504c-.207 0-.282-.175-.282-.388v-1.112H7.7v1.112c0 .213-.094.388-.3.388H5.893c-.207 0-.233-.175-.233-.388zm6.627-2.13a.382.382 0 00-.376-.388.382.382 0 00-.376.387c0 .215.168.388.376.388a.381.381 0 00.376-.387z" fill="#009688"/><path d="M34.026 5.122v2.88h-.342a.635.635 0 00-.054-.252c-.036-.084-.084-.126-.144-.126h-5.832v3.186h4.716c.06 0 .108-.042.144-.126a.635.635 0 00.054-.252h.342v2.88h-.342a.635.635 0 00-.054-.252c-.036-.084-.084-.126-.144-.126h-4.716v5.526c0 .06.042.108.126.144a.815.815 0 00.288.054V19H24.9v-.342a.678.678 0 00.27-.054c.096-.036.144-.084.144-.144V6.04c0-.06-.048-.108-.144-.144a.635.635 0 00-.252-.054V5.5h8.568c.06 0 .108-.042.144-.126a.635.635 0 00.054-.252h.342zm9.29 13.338c0 .06.043.108.127.144a.771.771 0 00.27.054V19H41.48v-.666a3.275 3.275 0 01-2.214.828c-1.26 0-2.184-.36-2.772-1.08-.588-.732-.882-1.644-.882-2.736V11.26c0-.06-.048-.108-.144-.144a.635.635 0 00-.252-.054v-.342h3.06v.342a.771.771 0 00-.27.054c-.084.036-.126.084-.126.144v3.942c0 .516.132.954.396 1.314.264.348.672.522 1.224.522.528 0 .924-.162 1.188-.486.264-.324.396-.738.396-1.242v-4.05c0-.06-.048-.108-.144-.144a.635.635 0 00-.252-.054v-.342h3.024v.342a.771.771 0 00-.27.054c-.084.036-.126.084-.126.144v7.2zm7.605-8.28v2.898h-.342a.925.925 0 00-.054-.288c-.036-.108-.084-.168-.144-.18h-.126c-.372 0-.75.108-1.134.324-.372.204-.684.48-.936.828-.24.336-.36.696-.36 1.08v3.618c0 .06.042.108.126.144a.771.771 0 00.27.054V19h-3.024v-.342a.635.635 0 00.252-.054c.096-.036.144-.084.144-.144v-7.2c0-.06-.048-.108-.144-.144a.635.635 0 00-.252-.054v-.342h2.628v.774a3.7 3.7 0 011.17-.72c.456-.18.912-.27 1.368-.27h.036c.06 0 .102-.036.126-.108a.48.48 0 00.054-.216h.342zm10.028 8.28c0 .06.042.108.126.144a.815.815 0 00.288.054V19h-3.168v-.342a.678.678 0 00.27-.054c.096-.036.144-.084.144-.144v-3.744c0-.612-.15-1.134-.45-1.566-.3-.444-.75-.666-1.35-.666-.612 0-1.11.204-1.494.612-.372.408-.558.996-.558 1.764v3.6c0 .06.042.108.126.144a.815.815 0 00.288.054V19h-3.15v-.342a.678.678 0 00.27-.054c.096-.036.144-.084.144-.144v-7.2c0-.06-.048-.108-.144-.144a.635.635 0 00-.252-.054v-.342h2.718v.738c.312-.288.678-.51 1.098-.666.432-.168.87-.252 1.314-.252.768 0 1.434.162 1.998.486a3.296 3.296 0 011.314 1.314c.312.54.468 1.146.468 1.818v4.302zm3.894-9.252c-.384 0-.714-.132-.99-.396a1.343 1.343 0 01-.396-.99c0-.372.132-.69.396-.954a1.35 1.35 0 01.99-.414c.384 0 .708.138.972.414a1.3 1.3 0 01.396.954c0 .396-.132.726-.396.99a1.321 1.321 0 01-.972.396zm-1.17 2.052c0-.06-.048-.108-.144-.144a.635.635 0 00-.252-.054v-.342h3.096v.342a.771.771 0 00-.27.054c-.084.036-.126.084-.126.144v7.2c0 .06.042.108.126.144a.771.771 0 00.27.054V19h-3.096v-.342a.635.635 0 00.252-.054c.096-.036.144-.084.144-.144v-7.2zm9.432-.9v2.736h-.342a.516.516 0 00-.054-.234c-.036-.084-.084-.126-.144-.126h-1.17v5.724c0 .06.042.108.126.144a.635.635 0 00.252.054V19H68.84v-.342a.635.635 0 00.252-.054c.084-.036.126-.084.126-.144v-5.724h-.864c-.06 0-.108.042-.144.126a.516.516 0 00-.054.234h-.342V10.36h.342c0 .084.018.168.054.252.036.072.084.108.144.108h.864V8.614c0-.06-.042-.108-.126-.144a.635.635 0 00-.252-.054v-.342h2.934v.342a.635.635 0 00-.252.054c-.084.036-.126.084-.126.144v2.106h1.17c.06 0 .108-.036.144-.108a.635.635 0 00.054-.252h.342zm9.288 8.1c0 .06.042.108.126.144a.771.771 0 00.27.054V19h-2.232v-.666a3.275 3.275 0 01-2.214.828c-1.26 0-2.184-.36-2.772-1.08-.588-.732-.882-1.644-.882-2.736V11.26c0-.06-.048-.108-.144-.144a.635.635 0 00-.252-.054v-.342h3.06v.342a.771.771 0 00-.27.054c-.084.036-.126.084-.126.144v3.942c0 .516.132.954.396 1.314.264.348.672.522 1.224.522.528 0 .924-.162 1.188-.486.264-.324.396-.738.396-1.242v-4.05c0-.06-.048-.108-.144-.144a.635.635 0 00-.252-.054v-.342h3.024v.342a.771.771 0 00-.27.054c-.084.036-.126.084-.126.144v7.2zm7.604-8.28v2.898h-.342a.925.925 0 00-.054-.288c-.036-.108-.084-.168-.144-.18h-.126c-.372 0-.75.108-1.134.324-.372.204-.684.48-.936.828-.24.336-.36.696-.36 1.08v3.618c0 .06.042.108.126.144a.771.771 0 00.27.054V19h-3.024v-.342a.635.635 0 00.252-.054c.096-.036.144-.084.144-.144v-7.2c0-.06-.048-.108-.144-.144a.635.635 0 00-.252-.054v-.342h2.628v.774a3.7 3.7 0 011.17-.72c.456-.18.912-.27 1.368-.27h.036c.06 0 .102-.036.126-.108a.48.48 0 00.054-.216h.342zm5.294.162c.925 0 1.722.204 2.395.612a3.9 3.9 0 011.53 1.62c.348.684.522 1.44.522 2.268 0 .252-.019.504-.055.756h-6.588c.049.576.3 1.026.757 1.35.456.324 1.001.486 1.638.486.431 0 .791-.06 1.08-.18.3-.12.564-.3.792-.54a.316.316 0 00.035-.09.24.24 0 00-.053-.144.39.39 0 00-.108-.126l.215-.27 1.999 1.566-.199.27c-.18-.108-.306-.12-.377-.036-.84 1.008-1.968 1.512-3.384 1.512-.912 0-1.716-.198-2.412-.594a4.372 4.372 0 01-1.62-1.62 4.67 4.67 0 01-.558-2.268c0-.876.185-1.662.557-2.358a4.028 4.028 0 011.549-1.62c.671-.396 1.433-.594 2.285-.594zm2.287 3.582c-.049-.492-.3-.906-.757-1.242a2.386 2.386 0 00-1.511-.522c-.564 0-1.05.174-1.459.522-.407.336-.653.75-.737 1.242h4.463z" fill="#fff"/></svg>